<svg width="276" height="198" viewBox="0 0 276 198" fill="none" xmlns="http://www.w3.org/2000/svg">
<circle opacity="0.5" cx="135" cy="111" r="86" fill="url(#paint0_radial_0_10)"/>
<g filter="url(#filter0_d_0_10)">
<path d="M134.015 37.1823C135.545 34.4677 139.455 34.4677 140.985 37.1823L159.295 69.669C159.866 70.6817 160.849 71.396 161.989 71.6259L198.544 79.0017C201.599 79.618 202.807 83.3358 200.698 85.6298L175.459 113.083C174.673 113.939 174.297 115.095 174.43 116.25L178.712 153.295C179.07 156.39 175.907 158.688 173.074 157.391L139.165 141.872C138.108 141.388 136.892 141.388 135.835 141.872L101.926 157.391C99.0929 158.688 95.9304 156.39 96.2881 153.295L100.57 116.25C100.703 115.095 100.327 113.939 99.5407 113.083L74.3024 85.6298C72.1935 83.3358 73.4014 79.618 76.456 79.0017L113.011 71.6259C114.151 71.396 115.134 70.6817 115.705 69.669L134.015 37.1823Z" fill="#FFD456"/>
</g>
<g style="mix-blend-mode:overlay" filter="url(#filter1_f_0_10)">
<ellipse cx="128.448" cy="55.5673" rx="2.58336" ry="18" transform="rotate(23.1372 128.448 55.5673)" fill="white"/>
</g>
<g style="mix-blend-mode:plus-darker" filter="url(#filter2_f_0_10)">
<ellipse cx="185.651" cy="100.037" rx="2.58336" ry="22.6928" transform="rotate(48.2548 185.651 100.037)" fill="#F37327"/>
</g>
<g style="mix-blend-mode:plus-darker" filter="url(#filter3_f_0_10)">
<ellipse cx="149.781" cy="56.3659" rx="0.982787" ry="22.6928" transform="rotate(-28.7625 149.781 56.3659)" fill="#F37327"/>
</g>
<g style="mix-blend-mode:plus-darker" filter="url(#filter4_f_0_10)">
<ellipse cx="89.2269" cy="99.2371" rx="0.982787" ry="22.6928" transform="rotate(-43.1141 89.2269 99.2371)" fill="#F37327"/>
</g>
<g style="mix-blend-mode:plus-darker" filter="url(#filter5_f_0_10)">
<ellipse cx="173.198" cy="134.614" rx="2.58336" ry="21.4587" transform="rotate(-7.05117 173.198 134.614)" fill="#F37327"/>
</g>
<g style="mix-blend-mode:plus-darker" filter="url(#filter6_f_0_10)">
<ellipse cx="156.152" cy="145.762" rx="2.58336" ry="21.8322" transform="rotate(-67.4383 156.152 145.762)" fill="#F37327"/>
</g>
<g style="mix-blend-mode:plus-darker" filter="url(#filter7_f_0_10)">
<ellipse cx="118.966" cy="144.431" rx="2.58336" ry="23.6521" transform="rotate(63.771 118.966 144.431)" fill="#F37327"/>
</g>
<g style="mix-blend-mode:overlay" filter="url(#filter8_f_0_10)">
<ellipse cx="96.2553" cy="79.5088" rx="3.07885" ry="18" transform="rotate(78.8257 96.2553 79.5088)" fill="white"/>
</g>
<g filter="url(#filter9_d_0_10)">
<path d="M34.7053 112.198C34.9859 110.588 36.9183 109.903 38.1504 110.976L52.8955 123.826C53.3552 124.227 53.9664 124.408 54.57 124.321L73.9328 121.561C75.5507 121.33 76.7994 122.956 76.159 124.46L68.4945 142.454C68.2556 143.015 68.2725 143.652 68.5409 144.2L77.1498 161.762C77.8692 163.229 76.7086 164.919 75.0807 164.775L55.5986 163.046C54.9913 162.992 54.3906 163.205 53.9528 163.63L39.9106 177.244C38.7373 178.382 36.7713 177.8 36.4056 176.207L32.0295 157.145C31.8931 156.55 31.5049 156.045 30.966 155.76L13.6785 146.612C12.2339 145.847 12.1795 143.798 13.5814 142.958L30.3589 132.905C30.8819 132.592 31.2427 132.067 31.3474 131.466L34.7053 112.198Z" fill="#FFD456"/>
</g>
<g style="mix-blend-mode:overlay" filter="url(#filter10_f_0_10)">
<ellipse cx="35.1753" cy="122.262" rx="1.35491" ry="9.44056" transform="rotate(3.61559 35.1753 122.262)" fill="white"/>
</g>
<g style="mix-blend-mode:plus-darker" filter="url(#filter11_f_0_10)">
<ellipse cx="71.2458" cy="134.219" rx="1.35491" ry="11.9018" transform="rotate(28.7332 71.2458 134.219)" fill="#F37327"/>
</g>
<g style="mix-blend-mode:plus-darker" filter="url(#filter12_f_0_10)">
<ellipse cx="45.8609" cy="118.918" rx="0.515448" ry="11.9018" transform="rotate(-48.2841 45.8609 118.918)" fill="#F37327"/>
</g>
<g style="mix-blend-mode:plus-darker" filter="url(#filter13_f_0_10)">
<ellipse cx="23.4407" cy="150.723" rx="0.515448" ry="11.9018" transform="rotate(-62.6357 23.4407 150.723)" fill="#F37327"/>
</g>
<g style="mix-blend-mode:plus-darker" filter="url(#filter14_f_0_10)">
<ellipse cx="71.1501" cy="153.493" rx="1.35491" ry="11.2545" transform="rotate(-26.5728 71.1501 153.493)" fill="#F37327"/>
</g>
<g style="mix-blend-mode:plus-darker" filter="url(#filter15_f_0_10)">
<ellipse cx="64.6781" cy="161.992" rx="1.35491" ry="11.4505" transform="rotate(-86.9599 64.6781 161.992)" fill="#F37327"/>
</g>
<g style="mix-blend-mode:plus-darker" filter="url(#filter16_f_0_10)">
<ellipse cx="46.0626" cy="167.851" rx="1.35491" ry="12.405" transform="rotate(44.2494 46.0626 167.851)" fill="#F37327"/>
</g>
<g style="mix-blend-mode:overlay" filter="url(#filter17_f_0_10)">
<ellipse cx="23.4575" cy="139.739" rx="1.61478" ry="9.44056" transform="rotate(59.3042 23.4575 139.739)" fill="white"/>
</g>
<g filter="url(#filter18_d_0_10)">
<path d="M238.277 116.168C239.58 115.181 241.461 115.996 241.631 117.622L243.662 137.075C243.726 137.681 244.05 138.23 244.55 138.578L260.6 149.755C261.942 150.689 261.747 152.73 260.254 153.394L242.381 161.338C241.824 161.585 241.402 162.063 241.225 162.646L235.555 181.365C235.081 182.929 233.08 183.375 231.987 182.16L218.909 167.616C218.502 167.163 217.917 166.909 217.307 166.922L197.753 167.313C196.119 167.346 195.076 165.581 195.894 164.166L205.685 147.234C205.99 146.706 206.05 146.072 205.85 145.496L199.435 127.019C198.899 125.475 200.256 123.938 201.854 124.279L220.983 128.358C221.579 128.485 222.201 128.347 222.687 127.979L238.277 116.168Z" fill="#FFD456"/>
</g>
<g style="mix-blend-mode:overlay" filter="url(#filter19_f_0_10)">
<ellipse cx="231.762" cy="123.852" rx="1.35491" ry="9.44056" transform="rotate(46.5819 231.762 123.852)" fill="white"/>
</g>
<g style="mix-blend-mode:plus-darker" filter="url(#filter20_f_0_10)">
<ellipse cx="250.007" cy="157.187" rx="1.35491" ry="11.9018" transform="rotate(71.6996 250.007 157.187)" fill="#F37327"/>
</g>
<g style="mix-blend-mode:plus-darker" filter="url(#filter21_f_0_10)">
<ellipse cx="241.86" cy="128.688" rx="0.515448" ry="11.9018" transform="rotate(-5.31769 241.86 128.688)" fill="#F37327"/>
</g>
<g style="mix-blend-mode:plus-darker" filter="url(#filter22_f_0_10)">
<ellipse cx="203.777" cy="136.681" rx="0.515448" ry="11.9018" transform="rotate(-19.6694 203.777 136.681)" fill="#F37327"/>
</g>
<g style="mix-blend-mode:plus-darker" filter="url(#filter23_f_0_10)">
<ellipse cx="236.8" cy="171.226" rx="1.35491" ry="11.2545" transform="rotate(16.3936 236.8 171.226)" fill="#F37327"/>
</g>
<g style="mix-blend-mode:plus-darker" filter="url(#filter24_f_0_10)">
<ellipse cx="226.272" cy="173.033" rx="1.35491" ry="11.4505" transform="rotate(-43.9935 226.272 173.033)" fill="#F37327"/>
</g>
<g style="mix-blend-mode:plus-darker" filter="url(#filter25_f_0_10)">
<ellipse cx="208.656" cy="164.633" rx="1.35491" ry="12.405" transform="rotate(87.2158 208.656 164.633)" fill="#F37327"/>
</g>
<g style="mix-blend-mode:overlay" filter="url(#filter26_f_0_10)">
<ellipse cx="211.276" cy="128.655" rx="1.61478" ry="9.44056" transform="rotate(102.271 211.276 128.655)" fill="white"/>
</g>
<defs>
<filter id="filter0_d_0_10" x="67.2437" y="30.1464" width="144.513" height="138.614" filterUnits="userSpaceOnUse" color-interpolation-filters="sRGB">
<feFlood flood-opacity="0" result="BackgroundImageFix"/>
<feColorMatrix in="SourceAlpha" type="matrix" values="0 0 0 0 0 0 0 0 0 0 0 0 0 0 0 0 0 0 127 0" result="hardAlpha"/>
<feOffset dx="2" dy="3"/>
<feGaussianBlur stdDeviation="4"/>
<feComposite in2="hardAlpha" operator="out"/>
<feColorMatrix type="matrix" values="0 0 0 0 0.966346 0 0 0 0 0.41875 0 0 0 0 0 0 0 0 0.2 0"/>
<feBlend mode="normal" in2="BackgroundImageFix" result="effect1_dropShadow_0_10"/>
<feBlend mode="normal" in="SourceGraphic" in2="effect1_dropShadow_0_10" result="shape"/>
</filter>
<filter id="filter1_f_0_10" x="113.385" y="31.3834" width="30.1263" height="48.3677" filterUnits="userSpaceOnUse" color-interpolation-filters="sRGB">
<feFlood flood-opacity="0" result="BackgroundImageFix"/>
<feBlend mode="normal" in="SourceGraphic" in2="BackgroundImageFix" result="shape"/>
<feGaussianBlur stdDeviation="3.8" result="effect1_foregroundBlur_0_10"/>
</filter>
<filter id="filter2_f_0_10" x="157.031" y="73.2033" width="57.2396" height="53.6668" filterUnits="userSpaceOnUse" color-interpolation-filters="sRGB">
<feFlood flood-opacity="0" result="BackgroundImageFix"/>
<feBlend mode="normal" in="SourceGraphic" in2="BackgroundImageFix" result="shape"/>
<feGaussianBlur stdDeviation="5.8" result="effect1_foregroundBlur_0_10"/>
</filter>
<filter id="filter3_f_0_10" x="127.227" y="24.8672" width="45.1072" height="62.9974" filterUnits="userSpaceOnUse" color-interpolation-filters="sRGB">
<feFlood flood-opacity="0" result="BackgroundImageFix"/>
<feBlend mode="normal" in="SourceGraphic" in2="BackgroundImageFix" result="shape"/>
<feGaussianBlur stdDeviation="5.8" result="effect1_foregroundBlur_0_10"/>
</filter>
<filter id="filter4_f_0_10" x="62.1007" y="71.0577" width="54.2527" height="56.3588" filterUnits="userSpaceOnUse" color-interpolation-filters="sRGB">
<feFlood flood-opacity="0" result="BackgroundImageFix"/>
<feBlend mode="normal" in="SourceGraphic" in2="BackgroundImageFix" result="shape"/>
<feGaussianBlur stdDeviation="5.8" result="effect1_foregroundBlur_0_10"/>
</filter>
<filter id="filter5_f_0_10" x="157.922" y="101.715" width="30.5521" height="65.7977" filterUnits="userSpaceOnUse" color-interpolation-filters="sRGB">
<feFlood flood-opacity="0" result="BackgroundImageFix"/>
<feBlend mode="normal" in="SourceGraphic" in2="BackgroundImageFix" result="shape"/>
<feGaussianBlur stdDeviation="5.8" result="effect1_foregroundBlur_0_10"/>
</filter>
<filter id="filter6_f_0_10" x="124.366" y="125.451" width="63.5721" height="40.6237" filterUnits="userSpaceOnUse" color-interpolation-filters="sRGB">
<feFlood flood-opacity="0" result="BackgroundImageFix"/>
<feBlend mode="normal" in="SourceGraphic" in2="BackgroundImageFix" result="shape"/>
<feGaussianBlur stdDeviation="5.8" result="effect1_foregroundBlur_0_10"/>
</filter>
<filter id="filter7_f_0_10" x="86.1178" y="122.122" width="65.6961" height="44.6187" filterUnits="userSpaceOnUse" color-interpolation-filters="sRGB">
<feFlood flood-opacity="0" result="BackgroundImageFix"/>
<feBlend mode="normal" in="SourceGraphic" in2="BackgroundImageFix" result="shape"/>
<feGaussianBlur stdDeviation="5.8" result="effect1_foregroundBlur_0_10"/>
</filter>
<filter id="filter8_f_0_10" x="70.9864" y="67.2944" width="50.5379" height="24.4286" filterUnits="userSpaceOnUse" color-interpolation-filters="sRGB">
<feFlood flood-opacity="0" result="BackgroundImageFix"/>
<feBlend mode="normal" in="SourceGraphic" in2="BackgroundImageFix" result="shape"/>
<feGaussianBlur stdDeviation="3.8" result="effect1_foregroundBlur_0_10"/>
</filter>
<filter id="filter9_d_0_10" x="9.41516" y="107.836" width="73.1973" height="75.7711" filterUnits="userSpaceOnUse" color-interpolation-filters="sRGB">
<feFlood flood-opacity="0" result="BackgroundImageFix"/>
<feColorMatrix in="SourceAlpha" type="matrix" values="0 0 0 0 0 0 0 0 0 0 0 0 0 0 0 0 0 0 127 0" result="hardAlpha"/>
<feOffset dx="1.04895" dy="1.57343"/>
<feGaussianBlur stdDeviation="2.0979"/>
<feComposite in2="hardAlpha" operator="out"/>
<feColorMatrix type="matrix" values="0 0 0 0 0.966346 0 0 0 0 0.41875 0 0 0 0 0 0 0 0 0.2 0"/>
<feBlend mode="normal" in2="BackgroundImageFix" result="effect1_dropShadow_0_10"/>
<feBlend mode="normal" in="SourceGraphic" in2="effect1_dropShadow_0_10" result="shape"/>
</filter>
<filter id="filter10_f_0_10" x="29.7113" y="108.853" width="10.9281" height="26.8163" filterUnits="userSpaceOnUse" color-interpolation-filters="sRGB">
<feFlood flood-opacity="0" result="BackgroundImageFix"/>
<feBlend mode="normal" in="SourceGraphic" in2="BackgroundImageFix" result="shape"/>
<feGaussianBlur stdDeviation="1.99301" result="effect1_foregroundBlur_0_10"/>
</filter>
<filter id="filter11_f_0_10" x="59.317" y="117.678" width="23.8578" height="33.0817" filterUnits="userSpaceOnUse" color-interpolation-filters="sRGB">
<feFlood flood-opacity="0" result="BackgroundImageFix"/>
<feBlend mode="normal" in="SourceGraphic" in2="BackgroundImageFix" result="shape"/>
<feGaussianBlur stdDeviation="3.04196" result="effect1_foregroundBlur_0_10"/>
</filter>
<filter id="filter12_f_0_10" x="30.8863" y="104.904" width="29.9496" height="28.0267" filterUnits="userSpaceOnUse" color-interpolation-filters="sRGB">
<feFlood flood-opacity="0" result="BackgroundImageFix"/>
<feBlend mode="normal" in="SourceGraphic" in2="BackgroundImageFix" result="shape"/>
<feGaussianBlur stdDeviation="3.04196" result="effect1_foregroundBlur_0_10"/>
</filter>
<filter id="filter13_f_0_10" x="6.78425" y="139.149" width="33.3133" height="23.1479" filterUnits="userSpaceOnUse" color-interpolation-filters="sRGB">
<feFlood flood-opacity="0" result="BackgroundImageFix"/>
<feBlend mode="normal" in="SourceGraphic" in2="BackgroundImageFix" result="shape"/>
<feGaussianBlur stdDeviation="3.04196" result="effect1_foregroundBlur_0_10"/>
</filter>
<filter id="filter14_f_0_10" x="59.8868" y="137.325" width="22.5267" height="32.3363" filterUnits="userSpaceOnUse" color-interpolation-filters="sRGB">
<feFlood flood-opacity="0" result="BackgroundImageFix"/>
<feBlend mode="normal" in="SourceGraphic" in2="BackgroundImageFix" result="shape"/>
<feGaussianBlur stdDeviation="3.04196" result="effect1_foregroundBlur_0_10"/>
</filter>
<filter id="filter15_f_0_10" x="47.1597" y="154.425" width="35.037" height="15.1346" filterUnits="userSpaceOnUse" color-interpolation-filters="sRGB">
<feFlood flood-opacity="0" result="BackgroundImageFix"/>
<feBlend mode="normal" in="SourceGraphic" in2="BackgroundImageFix" result="shape"/>
<feGaussianBlur stdDeviation="3.04196" result="effect1_foregroundBlur_0_10"/>
</filter>
<filter id="filter16_f_0_10" x="31.2676" y="152.831" width="29.5897" height="30.0412" filterUnits="userSpaceOnUse" color-interpolation-filters="sRGB">
<feFlood flood-opacity="0" result="BackgroundImageFix"/>
<feBlend mode="normal" in="SourceGraphic" in2="BackgroundImageFix" result="shape"/>
<feGaussianBlur stdDeviation="3.04196" result="effect1_foregroundBlur_0_10"/>
</filter>
<filter id="filter17_f_0_10" x="11.3113" y="130.736" width="24.2923" height="18.0052" filterUnits="userSpaceOnUse" color-interpolation-filters="sRGB">
<feFlood flood-opacity="0" result="BackgroundImageFix"/>
<feBlend mode="normal" in="SourceGraphic" in2="BackgroundImageFix" result="shape"/>
<feGaussianBlur stdDeviation="1.99301" result="effect1_foregroundBlur_0_10"/>
</filter>
<filter id="filter18_d_0_10" x="192.463" y="113.117" width="74.2817" height="75.5082" filterUnits="userSpaceOnUse" color-interpolation-filters="sRGB">
<feFlood flood-opacity="0" result="BackgroundImageFix"/>
<feColorMatrix in="SourceAlpha" type="matrix" values="0 0 0 0 0 0 0 0 0 0 0 0 0 0 0 0 0 0 127 0" result="hardAlpha"/>
<feOffset dx="1.04895" dy="1.57343"/>
<feGaussianBlur stdDeviation="2.0979"/>
<feComposite in2="hardAlpha" operator="out"/>
<feColorMatrix type="matrix" values="0 0 0 0 0.966346 0 0 0 0 0.41875 0 0 0 0 0 0 0 0 0.2 0"/>
<feBlend mode="normal" in2="BackgroundImageFix" result="effect1_dropShadow_0_10"/>
<feBlend mode="normal" in="SourceGraphic" in2="effect1_dropShadow_0_10" result="shape"/>
</filter>
<filter id="filter19_f_0_10" x="220.855" y="113.303" width="21.8143" height="21.0996" filterUnits="userSpaceOnUse" color-interpolation-filters="sRGB">
<feFlood flood-opacity="0" result="BackgroundImageFix"/>
<feBlend mode="normal" in="SourceGraphic" in2="BackgroundImageFix" result="shape"/>
<feGaussianBlur stdDeviation="1.99301" result="effect1_foregroundBlur_0_10"/>
</filter>
<filter id="filter20_f_0_10" x="232.615" y="147.149" width="34.784" height="20.0747" filterUnits="userSpaceOnUse" color-interpolation-filters="sRGB">
<feFlood flood-opacity="0" result="BackgroundImageFix"/>
<feBlend mode="normal" in="SourceGraphic" in2="BackgroundImageFix" result="shape"/>
<feGaussianBlur stdDeviation="3.04196" result="effect1_foregroundBlur_0_10"/>
</filter>
<filter id="filter21_f_0_10" x="234.559" y="110.753" width="14.6014" height="35.8691" filterUnits="userSpaceOnUse" color-interpolation-filters="sRGB">
<feFlood flood-opacity="0" result="BackgroundImageFix"/>
<feBlend mode="normal" in="SourceGraphic" in2="BackgroundImageFix" result="shape"/>
<feGaussianBlur stdDeviation="3.04196" result="effect1_foregroundBlur_0_10"/>
</filter>
<filter id="filter22_f_0_10" x="193.657" y="119.388" width="20.2396" height="34.5853" filterUnits="userSpaceOnUse" color-interpolation-filters="sRGB">
<feFlood flood-opacity="0" result="BackgroundImageFix"/>
<feBlend mode="normal" in="SourceGraphic" in2="BackgroundImageFix" result="shape"/>
<feGaussianBlur stdDeviation="3.04196" result="effect1_foregroundBlur_0_10"/>
</filter>
<filter id="filter23_f_0_10" x="227.283" y="154.338" width="19.0336" height="33.7756" filterUnits="userSpaceOnUse" color-interpolation-filters="sRGB">
<feFlood flood-opacity="0" result="BackgroundImageFix"/>
<feBlend mode="normal" in="SourceGraphic" in2="BackgroundImageFix" result="shape"/>
<feGaussianBlur stdDeviation="3.04196" result="effect1_foregroundBlur_0_10"/>
</filter>
<filter id="filter24_f_0_10" x="212.174" y="158.657" width="28.1947" height="28.7519" filterUnits="userSpaceOnUse" color-interpolation-filters="sRGB">
<feFlood flood-opacity="0" result="BackgroundImageFix"/>
<feBlend mode="normal" in="SourceGraphic" in2="BackgroundImageFix" result="shape"/>
<feGaussianBlur stdDeviation="3.04196" result="effect1_foregroundBlur_0_10"/>
</filter>
<filter id="filter25_f_0_10" x="190.182" y="157.067" width="36.9486" height="15.1313" filterUnits="userSpaceOnUse" color-interpolation-filters="sRGB">
<feFlood flood-opacity="0" result="BackgroundImageFix"/>
<feBlend mode="normal" in="SourceGraphic" in2="BackgroundImageFix" result="shape"/>
<feGaussianBlur stdDeviation="3.04196" result="effect1_foregroundBlur_0_10"/>
</filter>
<filter id="filter26_f_0_10" x="198.058" y="122.116" width="26.4344" height="13.0773" filterUnits="userSpaceOnUse" color-interpolation-filters="sRGB">
<feFlood flood-opacity="0" result="BackgroundImageFix"/>
<feBlend mode="normal" in="SourceGraphic" in2="BackgroundImageFix" result="shape"/>
<feGaussianBlur stdDeviation="1.99301" result="effect1_foregroundBlur_0_10"/>
</filter>
<radialGradient id="paint0_radial_0_10" cx="0" cy="0" r="1" gradientUnits="userSpaceOnUse" gradientTransform="translate(135 111) rotate(90) scale(66)">
<stop offset="0.432692" stop-color="#FFD456"/>
<stop offset="1" stop-color="white"/>
</radialGradient>
</defs>
</svg>
